HIERARCHY
ROOT Hips
{
	OFFSET 0.00000 0.00000 0.00000
	CHANNELS 6 Xposition Yposition Zposition Zrotation Yrotation Xrotation 
	JOINT LHipJoint
	{
		OFFSET 0 0 0
		CHANNELS 3 Zrotation Yrotation Xrotation
		JOINT LeftUpLeg
		{
			OFFSET 1.85742 -1.74412 1.01653
			CHANNELS 3 Zrotation Yrotation Xrotation
			JOINT LeftLeg
			{
				OFFSET 2.54803 -7.00067 0.00000
				CHANNELS 3 Zrotation Yrotation Xrotation
				JOINT LeftFoot
				{
					OFFSET 2.51202 -6.90173 0.00000
					CHANNELS 3 Zrotation Yrotation Xrotation
					JOINT LeftToeBase
					{
						OFFSET 0.17547 -0.48209 1.64281
						CHANNELS 3 Zrotation Yrotation Xrotation
						End Site
						{
							OFFSET 0.00000 -0.00000 0.86587
						}
					}
				}
			}
		}
	}
	JOINT RHipJoint
	{
		OFFSET 0 0 0
		CHANNELS 3 Zrotation Yrotation Xrotation
		JOINT RightUpLeg
		{
			OFFSET -1.95533 -1.74413 1.01654
			CHANNELS 3 Zrotation Yrotation Xrotation
			JOINT RightLeg
			{
				OFFSET -2.49465 -6.85400 0.00000
				CHANNELS 3 Zrotation Yrotation Xrotation
				JOINT RightFoot
				{
					OFFSET -2.54783 -7.00010 0.00000
					CHANNELS 3 Zrotation Yrotation Xrotation
					JOINT RightToeBase
					{
						OFFSET -0.18513 -0.50864 1.69288
						CHANNELS 3 Zrotation Yrotation Xrotation
						End Site
						{
							OFFSET -0.00000 -0.00000 0.89242
						}
					}
				}
			}
		}
	}
	JOINT LowerBack
	{
		OFFSET 0 0 0
		CHANNELS 3 Zrotation Yrotation Xrotation
		JOINT Spine
		{
			OFFSET 0.02173 2.16290 -0.15998
			CHANNELS 3 Zrotation Yrotation Xrotation
			JOINT Spine1
			{
				OFFSET 0.00940 2.17323 -0.00467
				CHANNELS 3 Zrotation Yrotation Xrotation
				JOINT Neck
				{
					OFFSET 0 0 0
					CHANNELS 3 Zrotation Yrotation Xrotation
					JOINT Neck1
					{
						OFFSET 0.01475 1.85823 0.31113
						CHANNELS 3 Zrotation Yrotation Xrotation
						JOINT Head
						{
							OFFSET 0.01902 1.88783 -0.37187
							CHANNELS 3 Zrotation Yrotation Xrotation
							End Site
							{
								OFFSET 0.00489 1.93211 -0.16169
							}
						}
					}
				}
				JOINT LeftShoulder
				{
					OFFSET 0 0 0
					CHANNELS 3 Zrotation Yrotation Xrotation
					JOINT LeftArm
					{
						OFFSET 3.34199 1.32384 -0.07862
						CHANNELS 3 Zrotation Yrotation Xrotation
						JOINT LeftForeArm
						{
							OFFSET 5.27950 -0.00000 0.00000
							CHANNELS 3 Zrotation Yrotation Xrotation
							JOINT LeftHand
							{
								OFFSET 3.53504 -0.00000 0.00000
								CHANNELS 3 Zrotation Yrotation Xrotation
								JOINT LeftFingerBase
								{
									OFFSET 0 0 0
									CHANNELS 3 Zrotation Yrotation Xrotation
									JOINT LeftHandIndex1
									{
										OFFSET 0.66795 -0.00000 0.00000
										CHANNELS 3 Zrotation Yrotation Xrotation
										End Site
										{
											OFFSET 0.53852 -0.00000 0.00000
										}
									}
								}
								JOINT LThumb
								{
									OFFSET 0 0 0
									CHANNELS 3 Zrotation Yrotation Xrotation
									End Site
									{
										OFFSET 0.54674 -0.00000 0.54674
									}
								}
							}
						}
					}
				}
				JOINT RightShoulder
				{
					OFFSET 0 0 0
					CHANNELS 3 Zrotation Yrotation Xrotation
					JOINT RightArm
					{
						OFFSET -3.16149 1.45719 -0.50507
						CHANNELS 3 Zrotation Yrotation Xrotation
						JOINT RightForeArm
						{
							OFFSET -5.25035 -0.00000 0.00000
							CHANNELS 3 Zrotation Yrotation Xrotation
							JOINT RightHand
							{
								OFFSET -3.58884 -0.00000 0.00000
								CHANNELS 3 Zrotation Yrotation Xrotation
								JOINT RightFingerBase
								{
									OFFSET 0 0 0
									CHANNELS 3 Zrotation Yrotation Xrotation
									JOINT RightHandIndex1
									{
										OFFSET -0.77924 -0.00000 0.00000
										CHANNELS 3 Zrotation Yrotation Xrotation
										End Site
										{
											OFFSET -0.62824 -0.00000 0.00000
										}
									}
								}
								JOINT RThumb
								{
									OFFSET 0 0 0
									CHANNELS 3 Zrotation Yrotation Xrotation
									End Site
									{
										OFFSET -0.63783 -0.00000 0.63783
									}
								}
							}
						}
					}
				}
			}
		}
	}
}
MOTION
Frames: 14
Frame Time: 0.027027
0.00 0.00 0.00 0 0 0 0 0 0 -21 0 0 0 0 0 0 0 0 0 0 0 0 0 0 21 0 0 0 0 0 0 0 0 0 0 0 0 0 0 0 0 0 0 0 0 0 0 -16 0 0 21 0 0 11 0 0 0 -8 0 0 0 0 0 0 0 0 0 0 0 0 0 0 0 0 0 0 0 0 8 0 0 0 0 0 0 0 0 0 0 0 0 0 0 0 0 0
0.00 0.00 0.00 -68.7665 85.9598 -63.9550 0.0000 0.0000 0.0000 -12.8927 -14.1298 -12.3956 2.5471 9.9230 28.7278 0.8958 7.4824 -22.0960 1.8617 -8.5718 -24.4649 0.0000 0.0000 0.0000 20.5953 21.0994 -0.6747 -0.6659 -5.2188 14.5336 2.1104 -26.3974 -20.5316 -0.5177 4.6114 -12.8035 -1.6066 1.2007 2.4620 0.0295 1.5471 -1.9830 0.8458 0.8133 -3.4631 -12.5134 -9.5799 -11.3168 10.8277 -13.5394 30.4771 4.3302 -5.8094 13.9223 -0.0000 0.0000 0.0000 -85.2834 2.7056 44.7126 37.5410 -46.5436 -16.6316 -0.0000 0.0000 -29.0657 30.7621 53.5224 25.5764 -7.1250 0.0000 -0.0000 -69.2149 83.5382 -63.0200 -0.0000 0.0000 0.0000 82.7117 -1.2760 39.0950 -24.8808 36.0819 -8.2196 0.0000 -0.0000 -3.5952 -17.5567 19.4027 -6.0001 7.1250 -0.0000 -0.0000 6.9368 -9.8226 5.6947
0.00 0.00 0.00 -36.7016 81.9416 -27.8195 0.0000 0.0000 0.0000 -11.8333 -12.9747 -16.5903 2.1464 9.1646 26.3116 0.6745 10.0915 -22.2835 1.0683 -6.5707 -18.4497 0.0000 0.0000 0.0000 18.4447 11.1463 -13.6637 -0.7183 -5.4158 15.0984 0.2237 -10.2332 -10.0552 -0.5622 4.8026 -13.3463 -5.0733 1.0158 9.4843 -0.4448 0.8115 0.5228 2.2803 0.5185 -4.8435 -13.4639 -11.5313 -10.1350 14.8067 -17.3210 26.8720 5.2701 -7.3353 13.3040 0.0000 0.0000 0.0000 -84.0021 2.9169 27.7731 17.6829 -27.7493 -4.4006 -0.0000 0.0000 -24.3843 36.8977 52.5153 30.7838 -7.1250 0.0000 -0.0000 -66.9751 86.1918 -63.4185 0.0000 0.0000 0.0000 81.4508 0.6329 36.1967 -20.6681 31.4388 -5.8758 0.0000 -0.0000 -1.6956 -18.7845 19.2585 -6.4009 7.1250 -0.0000 -0.0000 6.1333 -9.8160 5.0276
0.00 0.00 0.00 -5.1807 71.4553 6.1710 0.0000 0.0000 0.0000 -14.3522 -8.4809 -10.1830 1.0962 6.6533 18.6922 0.2999 17.1431 -26.8216 0.9123 -6.0861 -17.0343 0.0000 0.0000 0.0000 8.0633 9.3612 -27.7752 -0.1070 -2.1089 5.8067 1.3584 -20.3575 -11.2580 -0.1860 -2.7778 7.6606 -7.4728 0.3331 12.6016 0.0190 -0.4766 2.2713 4.3170 -0.0961 -4.6050 -12.5934 -10.1892 -10.1251 17.4120 -16.1523 25.5376 6.3585 -6.5384 12.7461 0.0000 -0.0000 0.0000 -80.7663 5.4392 22.2197 11.4769 -19.0155 -1.9284 -0.0000 0.0000 -19.3431 36.9852 53.5526 31.2089 -7.1250 0.0000 -0.0000 -82.6012 86.1301 -78.7382 0.0000 -0.0000 0.0000 81.4172 -2.3695 3.7935 -8.9532 15.0858 -1.1879 0.0000 0.0000 10.8642 -19.9924 18.3655 -6.5394 7.1250 -0.0000 -0.0000 5.2936 -10.5879 4.2495
0.00 0.00 0.00 8.5787 62.9836 19.9560 0.0000 0.0000 0.0000 -13.2152 7.7090 -5.1993 1.0788 6.6019 18.5413 -0.7033 16.2217 -13.4966 4.5436 -12.8507 -38.8120 0.0000 0.0000 0.0000 8.8407 6.1888 -36.6049 -1.2980 -7.2181 20.3632 0.7241 -15.7832 -0.1790 -0.4066 4.0936 -11.3401 -1.1191 -0.9537 15.2333 2.0050 -1.2385 1.1942 3.0315 -0.5097 -7.2071 -12.2891 -9.6771 -14.4572 15.6115 -14.4477 23.4222 5.6350 -5.8169 12.2561 -0.0000 0.0000 0.0000 -86.7085 -3.9128 21.8155 24.0701 -35.2383 -7.7470 -0.0000 0.0000 -29.8146 40.9251 52.3110 34.4535 -7.1250 0.0000 -0.0000 -82.1767 87.9628 -80.1523 -0.0000 0.0000 0.0000 74.8073 8.2252 9.5053 -14.5549 23.5224 -3.0461 0.0000 -0.0000 -6.8926 -26.9304 19.0666 -9.4221 7.1250 -0.0000 -0.0000 0.8434 -8.7919 0.7046
0.00 0.00 0.00 4.9273 61.0741 16.3211 0.0000 0.0000 0.0000 -9.7457 6.6352 -11.4056 3.5105 11.4789 33.9125 -0.4496 11.8073 -5.1632 0.8551 -5.8973 -16.4868 0.0000 0.0000 0.0000 13.8209 6.1514 -33.0506 -1.1136 -6.7042 18.8418 0.5317 -13.0687 -1.9721 -0.2388 3.1450 -8.6826 1.8159 -1.5635 15.9196 2.9894 -1.4197 1.0374 2.4860 -0.6627 -7.7975 -11.0842 -9.1863 -15.9552 14.7361 -13.8293 24.4063 5.1976 -5.4289 12.6606 -0.0000 0.0000 0.0000 -88.9896 -8.1452 24.6262 23.4973 -34.6282 -7.4190 -0.0000 0.0000 -32.5812 42.1036 53.0315 35.8298 -7.1250 0.0000 -0.0000 -111.5184 -87.9550 113.4343 -0.0000 0.0000 0.0000 74.8037 16.1073 4.4557 -12.1295 19.9986 -2.1464 0.0000 -0.0000 -5.7164 -30.0496 17.6430 -9.9450 7.1250 -0.0000 -0.0000 -1.3426 -9.8093 -1.0945
0.00 0.00 0.00 5.7730 56.5779 15.9780 0.0000 0.0000 0.0000 -12.6484 5.9329 -19.1015 8.1046 16.1956 52.9385 0.0562 -2.3007 -4.2670 1.0094 -6.3927 -17.9282 0.0000 0.0000 0.0000 14.7529 8.1611 -28.8904 -0.9878 -6.3259 17.7331 0.4166 -11.4066 -3.0083 -0.2300 3.0871 -8.5213 1.9585 -1.5485 16.2146 2.9866 -1.3721 1.5321 2.3865 -0.6429 -7.4318 -10.2853 -8.5181 -16.6219 13.9773 -12.9468 25.3821 4.9506 -4.9948 12.9137 0.0000 0.0000 0.0000 -90.3026 -13.5534 33.1282 22.5144 -33.5535 -6.8680 -0.0000 0.0000 -33.1865 36.0875 52.5446 30.0538 -7.1250 0.0000 -0.0000 -65.6637 85.8242 -61.7939 0.0000 0.0000 0.0000 75.8228 22.4351 3.9500 -11.9906 19.7905 -2.0991 0.0000 -0.0000 -8.5581 -32.7184 17.4555 -10.9078 7.1250 -0.0000 -0.0000 -3.0964 -9.5108 -2.5460
0.00 0.00 0.00 4.2021 51.4670 14.1127 0.0000 0.0000 0.0000 -16.0295 7.4920 -29.4005 13.5712 18.9788 70.8906 -0.2423 -15.7388 -8.2744 3.2071 -11.0230 -32.3574 0.0000 0.0000 0.0000 16.7327 10.4582 -25.8347 -0.9741 -6.2832 17.6084 0.2390 -8.7060 -4.4228 -0.2888 3.4560 -9.5511 2.9306 -1.3430 15.8658 3.1283 -0.9473 1.9124 1.8730 -0.4619 -6.8551 -9.6183 -7.6515 -16.9308 13.2412 -11.7586 26.2732 4.7955 -4.4614 13.0439 -0.0000 0.0000 0.0000 -92.8158 -20.4822 36.1051 19.0168 -29.4396 -5.0391 -0.0000 0.0000 -25.5941 25.9756 46.2354 19.3846 -7.1250 0.0000 -0.0000 -30.0964 77.7953 -23.4114 -0.0000 0.0000 0.0000 77.9251 26.9732 5.6210 -12.2572 20.1893 -2.1903 0.0000 -0.0000 -7.9896 -32.8695 16.6842 -10.5097 7.1250 -0.0000 -0.0000 -3.3022 -10.3671 -2.6586
0.00 0.00 0.00 -0.0341 21.9477 10.1942 0.0000 0.0000 0.0000 -13.6750 -0.3145 -49.0904 5.8050 14.2367 44.1941 -0.1381 -9.1931 -3.4974 2.4417 -9.7311 -28.1102 0.0000 0.0000 0.0000 20.9660 15.3075 -17.6162 -1.6772 -8.1586 23.1970 -0.2644 12.3248 -11.8531 -0.2274 3.0697 -8.4729 4.1362 -1.1327 15.4938 2.1209 -0.6551 3.2140 0.0294 -0.3503 -5.2869 -3.6512 -1.6957 -20.5469 6.8670 -3.5509 34.0970 2.9158 -0.9085 15.7116 -0.0000 0.0000 0.0000 -90.7241 -29.8488 48.6054 23.4213 -34.5463 -7.3758 -0.0000 0.0000 -22.5833 31.5131 51.1653 25.5288 -7.1250 0.0000 -0.0000 -49.2802 83.3070 -43.9987 -0.0000 0.0000 0.0000 89.5361 29.8056 39.6501 -13.2861 21.7049 -2.5581 0.0000 -0.0000 -8.8475 -36.3600 14.5966 -10.5104 7.1250 -0.0000 -0.0000 -5.8884 -12.1314 -4.5440
0.00 0.00 0.00 -4.8656 -30.1540 16.8439 0.0000 0.0000 0.0000 -11.2918 -0.6529 -28.1949 2.4303 9.7100 28.0427 0.4324 7.0917 -17.0059 3.6511 -11.6810 -34.6127 0.0000 0.0000 0.0000 18.0477 3.9718 -29.8600 -1.7265 -8.2715 23.5417 -0.1712 -2.9475 -9.4780 -0.0709 -1.7179 4.7267 -5.2881 3.5877 14.2030 -5.6457 3.4586 1.7942 -3.6819 1.7130 -6.0201 -5.8442 -4.5946 -22.8133 6.5072 -6.9593 32.5891 2.3721 -2.7453 15.8585 0.0000 -0.0000 0.0000 -75.5982 -17.9135 58.5685 73.9952 -59.0096 -46.1855 -0.0000 0.0000 -30.1307 49.5247 52.8104 43.0320 -7.1250 0.0000 -0.0000 171.6209 -86.2053 -172.1916 0.0000 -0.0000 0.0000 85.7975 11.9526 43.8852 -52.8247 54.0731 -28.4461 0.0000 -0.0000 -37.8388 -16.7925 10.6575 -3.1943 7.1250 -0.0000 -0.0000 7.2519 -18.9080 4.5471
0.00 0.00 0.00 -5.5743 -35.2095 16.7275 0.0000 0.0000 0.0000 -11.0134 -1.5140 -23.2688 2.0494 8.9682 25.6960 0.1366 13.0184 -20.0971 3.4831 -11.4389 -33.7747 0.0000 0.0000 0.0000 19.3862 2.4846 -30.4524 -1.1777 -6.8878 19.3835 0.3718 -11.5114 -8.6893 -0.4602 -4.3517 12.0683 -6.0002 2.7948 12.2731 -4.5272 2.5289 0.9902 -1.8361 1.3038 -5.9052 -9.8813 -8.8024 -17.1476 11.6223 -14.1667 31.7023 3.8362 -5.8250 15.7307 0.0000 -0.0000 0.0000 -75.6934 -11.9968 60.3196 95.6290 -59.8799 -64.8729 -0.0000 0.0000 -28.7069 55.0378 53.3021 48.9092 -7.1250 0.0000 -0.0000 164.4866 -82.9402 -166.4834 0.0000 -0.0000 0.0000 82.7829 8.0635 47.1508 -69.9338 58.4225 -42.7142 0.0000 -0.0000 -41.5018 -26.5344 11.5162 -5.6930 7.1250 -0.0000 -0.0000 0.4325 -17.1505 0.2858
0.00 0.00 0.00 -2.3707 -42.3353 13.5726 0.0000 0.0000 0.0000 -13.9864 0.8182 -16.5365 1.5355 7.8228 22.1772 -0.0363 17.1325 -23.9502 2.2538 -9.3759 -26.9784 0.0000 0.0000 0.0000 15.0501 6.3254 -28.9431 -0.6322 -5.0873 14.1577 3.1447 -29.8220 -16.7006 -1.9827 -8.8299 25.2647 -6.0741 1.4739 10.1455 -3.1949 1.0057 -0.1350 -0.0895 0.6069 -5.9005 -11.2992 -10.9949 -14.4277 14.3966 -18.6372 31.3029 4.3522 -7.7518 16.2230 0.0000 -0.0000 0.0000 -78.1471 -6.7782 62.1366 112.3077 -58.0336 -79.1915 -0.0000 0.0000 -24.2611 59.5544 52.0676 53.3065 -7.1250 0.0000 -0.0000 155.6598 -80.9650 -159.6461 0.0000 -0.0000 0.0000 82.9302 5.5825 44.3427 -90.7326 59.9980 -60.6344 0.0000 -0.0000 -34.7282 -34.1671 18.4815 -12.1430 7.1250 -0.0000 -0.0000 -3.8724 -8.0244 -3.3016
0.00 0.00 0.00 2.6348 -58.7845 4.4678 0.0000 0.0000 0.0000 -10.4815 7.4992 -7.3346 3.4655 11.4130 33.6856 -1.8960 23.5006 -9.8912 0.6352 -5.0992 -14.1918 0.0000 0.0000 0.0000 21.7277 2.7058 -21.8912 -1.1173 -6.7150 18.8736 0.6581 -14.9093 -10.4459 -0.1384 -2.3976 6.6059 1.1450 0.3249 6.9613 -0.1853 0.5267 -1.5104 -0.8971 0.2197 -5.4668 -10.0311 -7.9682 -18.3547 11.3527 -13.1066 31.5693 3.9114 -5.4718 15.7547 0.0000 -0.0000 0.0000 -77.5696 2.3505 53.9002 126.5404 -54.2990 -91.0391 -0.0000 0.0000 -22.3831 70.9796 51.7082 66.2881 -7.1250 0.0000 -0.0000 156.7933 -73.7402 -164.0019 0.0000 -0.0000 0.0000 82.1970 7.7349 54.5180 -106.9991 58.8795 -74.6663 0.0000 -0.0000 -29.4258 -39.3801 27.0968 -20.4999 7.1250 -0.0000 -0.0000 -5.3445 3.3929 -5.6756
0.00 0.00 0.00 11.3279 -68.9452 -5.5726 0.0000 0.0000 0.0000 -14.3066 6.0043 -12.8998 7.2372 15.5284 49.7657 -0.0222 2.6462 -0.7882 1.4228 -7.5430 -21.3344 0.0000 0.0000 0.0000 21.4725 7.6181 -13.3760 -0.9817 -6.3071 17.6780 0.2757 -12.3728 -13.2876 -0.1299 -2.3228 6.3985 1.7848 1.1241 6.2339 0.1026 1.6516 -1.6551 -1.0699 0.7618 -5.1689 -9.1751 -7.6698 -19.7216 12.9930 -13.4325 30.6024 4.3288 -5.2767 15.7709 0.0000 0.0000 0.0000 -80.2148 5.3650 51.4536 129.2446 -53.2957 -93.2214 -0.0000 0.0000 -21.1164 68.5054 50.7208 63.0357 -7.1250 0.0000 -0.0000 152.6895 -75.7389 -159.9457 0.0000 0.0000 0.0000 79.9517 9.9519 57.4924 -105.5289 59.0689 -73.4064 0.0000 -0.0000 -29.6151 -39.4004 27.7347 -20.9204 7.1250 -0.0000 -0.0000 -5.2068 4.1265 -5.5904
